<svg width="17" height="17" viewBox="0 0 17 17" fill="none" xmlns="http://www.w3.org/2000/svg">
<path fill-rule="evenodd" clip-rule="evenodd" d="M12.1862 7.64717L13.4583 6.375C13.8446 5.98878 14.0377 5.79568 14.1409 5.58735C14.3373 5.19101 14.3373 4.72567 14.1409 4.32931C14.0377 4.121 13.8446 3.92789 13.4583 3.54167C13.0722 3.15545 12.879 2.96234 12.6707 2.85911C12.2744 2.6627 11.809 2.6627 11.4127 2.85911C11.2044 2.96234 11.0113 3.15545 10.625 3.54167L9.33684 4.82988C10.0195 5.99906 11.0014 6.97341 12.1862 7.64717ZM8.30657 5.86013L3.43997 10.7267C3.13888 11.0278 2.98834 11.1783 2.88936 11.3633C2.79038 11.5482 2.74863 11.757 2.66512 12.1745L2.22921 14.3541C2.18209 14.5897 2.15853 14.7075 2.22555 14.7745C2.29257 14.8415 2.41036 14.8179 2.64596 14.7708L4.82549 14.3349C5.24302 14.2514 5.45178 14.2097 5.63673 14.1106C5.82167 14.0117 5.97221 13.8612 6.2733 13.56L11.1533 8.68006C10.0046 7.96067 9.03297 6.9957 8.30657 5.86013Z" fill="white"/>
</svg>
