<svg width="32" height="33" viewBox="0 0 32 33" fill="none" xmlns="http://www.w3.org/2000/svg">
<path d="M23 28.875H9C7.67392 28.875 6.40215 28.3318 5.46447 27.3648C4.52678 26.3978 4 25.0863 4 23.7188V9.28125C4 7.91373 4.52678 6.60222 5.46447 5.63523C6.40215 4.66825 7.67392 4.125 9 4.125H23C24.3261 4.125 25.5979 4.66825 26.5355 5.63523C27.4732 6.60222 28 7.91373 28 9.28125V23.7188C28 25.0863 27.4732 26.3978 26.5355 27.3648C25.5979 28.3318 24.3261 28.875 23 28.875ZM9 6.1875C8.20435 6.1875 7.44129 6.51345 6.87868 7.09364C6.31607 7.67383 6 8.46074 6 9.28125V23.7188C6 24.5393 6.31607 25.3262 6.87868 25.9064C7.44129 26.4866 8.20435 26.8125 9 26.8125H23C23.7956 26.8125 24.5587 26.4866 25.1213 25.9064C25.6839 25.3262 26 24.5393 26 23.7188V9.28125C26 8.46074 25.6839 7.67383 25.1213 7.09364C24.5587 6.51345 23.7956 6.1875 23 6.1875H9Z" fill="#7F3DFF"/>
</svg>
