<svg width="32" height="32" viewBox="0 0 32 32" fill="none" xmlns="http://www.w3.org/2000/svg">
<path fill-rule="evenodd" clip-rule="evenodd" d="M13.3333 16C13.3333 14.5273 14.5272 13.3334 15.9999 13.3334C17.4727 13.3334 18.6666 14.5273 18.6666 16C18.6666 17.4728 17.4727 18.6667 15.9999 18.6667C14.5272 18.6667 13.3333 17.4728 13.3333 16Z" fill="#161719"/>
<path fill-rule="evenodd" clip-rule="evenodd" d="M22.6667 16C22.6667 14.5273 23.8606 13.3334 25.3334 13.3334C26.8061 13.3334 28 14.5273 28 16C28 17.4728 26.8061 18.6667 25.3334 18.6667C23.8606 18.6667 22.6667 17.4728 22.6667 16Z" fill="#161719"/>
<path fill-rule="evenodd" clip-rule="evenodd" d="M4 16C4 14.5273 5.19391 13.3334 6.66667 13.3334C8.13943 13.3334 9.33333 14.5273 9.33333 16C9.33333 17.4728 8.13943 18.6667 6.66667 18.6667C5.19391 18.6667 4 17.4728 4 16Z" fill="#161719"/>
</svg>
