<svg width="34" height="32" viewBox="0 0 34 32" fill="none" xmlns="http://www.w3.org/2000/svg">
<path d="M29.4185 15H17.8612V4C20.8464 4.22837 23.6486 5.46063 25.7663 7.47614C27.8839 9.49166 29.1786 12.1588 29.4185 15Z" fill="#C6C6C6"/>
<path d="M29.4187 17C29.2095 19.2756 28.3223 21.4471 26.8613 23.2594C25.4003 25.0716 23.4262 26.4493 21.1709 27.2306C18.9156 28.0119 16.4729 28.1643 14.1298 27.6699C11.7867 27.1755 9.64048 26.0549 7.94341 24.4396C6.24634 22.8244 5.06891 20.7817 4.54946 18.5516C4.03001 16.3214 4.19013 13.9965 5.01101 11.85C5.83188 9.7035 7.27941 7.82457 9.18349 6.43401C11.0876 5.04346 13.3691 4.19905 15.76 4V16C15.76 16.2652 15.8707 16.5196 16.0677 16.7071C16.2648 16.8946 16.532 17 16.8107 17H29.4187Z" fill="#C6C6C6"/>
</svg>
