<svg width="34" height="32" viewBox="0 0 34 32" fill="none" xmlns="http://www.w3.org/2000/svg">
<path d="M16.8106 16.07C20.2922 16.07 23.1146 13.3837 23.1146 10.07C23.1146 6.7563 20.2922 4.07001 16.8106 4.07001C13.329 4.07001 10.5066 6.7563 10.5066 10.07C10.5066 13.3837 13.329 16.07 16.8106 16.07Z" fill="#7F3DFF"/>
<path d="M19.9626 18H13.6586C11.708 18 9.83736 18.7375 8.45809 20.0503C7.07882 21.363 6.30396 23.1435 6.30396 25C6.30396 25.7956 6.63604 26.5587 7.22715 27.1213C7.81827 27.6839 8.61999 28 9.45596 28H24.1653C25.0013 28 25.803 27.6839 26.3941 27.1213C26.9852 26.5587 27.3173 25.7956 27.3173 25C27.3173 23.1435 26.5424 21.363 25.1632 20.0503C23.7839 18.7375 21.9132 18 19.9626 18Z" fill="#7F3DFF"/>
</svg>
