<svg width="34" height="32" viewBox="0 0 34 32" fill="none" xmlns="http://www.w3.org/2000/svg">
<path d="M29.072 13.56L26.9706 11.74L18.912 4.77998C18.3341 4.28803 17.586 4.01605 16.8107 4.01605C16.0354 4.01605 15.2872 4.28803 14.7093 4.77998L6.67174 11.78L4.57041 13.6C4.42891 13.7366 4.3317 13.9091 4.29038 14.0969C4.24906 14.2847 4.26536 14.4799 4.33736 14.6591C4.40935 14.8383 4.53399 14.994 4.6964 15.1076C4.85882 15.2213 5.05215 15.288 5.25334 15.3C5.51947 15.2885 5.77108 15.1813 5.95729 15L6.30401 14.7V25C6.30401 25.7956 6.63609 26.5587 7.22721 27.1213C7.81832 27.6839 8.62005 28 9.45601 28H24.1653C25.0013 28 25.803 27.6839 26.3941 27.1213C26.9853 26.5587 27.3173 25.7956 27.3173 25V14.74L27.6641 15.04C27.8568 15.2067 28.1076 15.2993 28.368 15.3C28.5798 15.2995 28.7866 15.238 28.9611 15.1237C29.1355 15.0093 29.2696 14.8475 29.3458 14.6593C29.4219 14.4712 29.4365 14.2655 29.3876 14.0693C29.3387 13.8731 29.2287 13.6956 29.072 13.56Z" fill="#C6C6C6"/>
</svg>
