<svg width="27" height="24" viewBox="0 0 27 24" fill="none" xmlns="http://www.w3.org/2000/svg">
<mask id="path-1-inside-1_0_87" fill="white">
<path d="M14.2826 13.1564L24.68 13.1564C24.8585 13.1692 25.0379 13.1477 25.207 13.0931C25.3761 13.0386 25.5312 12.9522 25.6626 12.8394C25.794 12.7266 25.8988 12.5899 25.9705 12.4378C26.0422 12.2856 26.0792 12.1214 26.0792 11.9554C26.0792 11.7893 26.0422 11.6251 25.9705 11.473C25.8988 11.3208 25.794 11.1841 25.6626 11.0713C25.5312 10.9585 25.3761 10.8721 25.207 10.8176C25.0379 10.763 24.8585 10.7415 24.68 10.7543L14.2826 10.7543L14.2826 1.11173C14.2574 0.809225 14.11 0.526692 13.8699 0.32059C13.6298 0.114489 13.3147 -4.09168e-07 12.9875 -4.09168e-07C12.6604 -3.68566e-07 12.3453 0.114489 12.1052 0.32059C11.8651 0.526692 11.7177 0.809225 11.6925 1.11173L11.6925 10.7543L1.29506 10.7543C0.951896 10.7552 0.62308 10.8821 0.380426 11.1071C0.137772 11.3322 0.000998425 11.6371 -2.17567e-05 11.9554C0.000998874 12.2736 0.137773 12.5786 0.380427 12.8036C0.623081 13.0286 0.951897 13.1555 1.29506 13.1564L11.6925 13.1564L11.6925 22.799C11.6935 23.1172 11.8303 23.4222 12.0729 23.6472C12.3156 23.8723 12.6444 23.9991 12.9875 24.0001C13.3307 23.9991 13.6595 23.8723 13.9022 23.6472C14.1448 23.4222 14.2816 23.1173 14.2826 22.799L14.2826 13.1564Z"/>
</mask>
<path d="M14.2826 13.1564L24.68 13.1564C24.8585 13.1692 25.0379 13.1477 25.207 13.0931C25.3761 13.0386 25.5312 12.9522 25.6626 12.8394C25.794 12.7266 25.8988 12.5899 25.9705 12.4378C26.0422 12.2856 26.0792 12.1214 26.0792 11.9554C26.0792 11.7893 26.0422 11.6251 25.9705 11.473C25.8988 11.3208 25.794 11.1841 25.6626 11.0713C25.5312 10.9585 25.3761 10.8721 25.207 10.8176C25.0379 10.763 24.8585 10.7415 24.68 10.7543L14.2826 10.7543L14.2826 1.11173C14.2574 0.809225 14.11 0.526692 13.8699 0.32059C13.6298 0.114489 13.3147 -4.09168e-07 12.9875 -4.09168e-07C12.6604 -3.68566e-07 12.3453 0.114489 12.1052 0.32059C11.8651 0.526692 11.7177 0.809225 11.6925 1.11173L11.6925 10.7543L1.29506 10.7543C0.951896 10.7552 0.62308 10.8821 0.380426 11.1071C0.137772 11.3322 0.000998425 11.6371 -2.17567e-05 11.9554C0.000998874 12.2736 0.137773 12.5786 0.380427 12.8036C0.623081 13.0286 0.951897 13.1555 1.29506 13.1564L11.6925 13.1564L11.6925 22.799C11.6935 23.1172 11.8303 23.4222 12.0729 23.6472C12.3156 23.8723 12.6444 23.9991 12.9875 24.0001C13.3307 23.9991 13.6595 23.8723 13.9022 23.6472C14.1448 23.4222 14.2816 23.1173 14.2826 22.799L14.2826 13.1564Z" fill="black"/>
<path d="M14.2826 13.1564V10.7481H11.6857V13.1564L14.2826 13.1564ZM24.68 13.1564L24.8803 10.7552L24.7803 10.7481L24.68 10.7481L24.68 13.1564ZM24.68 10.7543L24.68 13.1627H24.7803L24.8803 13.1555L24.68 10.7543ZM14.2826 10.7543L11.6857 10.7543L11.6857 13.1627L14.2826 13.1627L14.2826 10.7543ZM14.2826 1.11173L16.8795 1.11173V1.0187L16.8718 0.925956L14.2826 1.11173ZM11.6925 1.11173L9.1033 0.925956L9.09556 1.0187V1.11173L11.6925 1.11173ZM11.6925 10.7543V13.1627H14.2894L14.2894 10.7543H11.6925ZM1.29506 10.7543L1.29506 8.34592L1.28733 8.34594L1.29506 10.7543ZM-2.17567e-05 11.9554L-2.59691 11.9482L-2.59693 11.9554L-2.59691 11.9625L-2.17567e-05 11.9554ZM1.29506 13.1564L1.28733 15.5648L1.29506 15.5648L1.29506 13.1564ZM11.6925 13.1564L14.2894 13.1564L14.2894 10.7481L11.6925 10.7481L11.6925 13.1564ZM11.6925 22.799L9.09555 22.799L9.09557 22.8062L11.6925 22.799ZM12.9875 24.0001L12.9798 26.4084L12.9875 26.4084L12.9953 26.4084L12.9875 24.0001ZM14.2826 22.799L16.8795 22.8062L16.8795 22.799L14.2826 22.799ZM14.2826 15.5648L24.68 15.5648L24.68 10.7481L14.2826 10.7481V15.5648ZM24.4797 15.5576C25.015 15.596 25.5532 15.5314 26.0603 15.3678L24.3538 10.8185C24.5227 10.764 24.702 10.7424 24.8803 10.7552L24.4797 15.5576ZM26.0603 15.3678C26.5674 15.2042 27.0326 14.9451 27.4266 14.6069L23.8985 11.072C24.0298 10.9593 24.1848 10.873 24.3538 10.8185L26.0603 15.3678ZM27.4266 14.6069C27.8207 14.2686 28.1351 13.8585 28.3501 13.4022L23.5909 11.4733C23.6625 11.3213 23.7673 11.1847 23.8985 11.072L27.4266 14.6069ZM28.3501 13.4022C28.5651 12.9459 28.6761 12.4533 28.6761 11.9554L23.4823 11.9554C23.4823 11.7895 23.5193 11.6254 23.5909 11.4733L28.3501 13.4022ZM28.6761 11.9554C28.6761 11.4574 28.5651 10.9648 28.3501 10.5085L23.5909 12.4374C23.5193 12.2854 23.4823 12.1213 23.4823 11.9554L28.6761 11.9554ZM28.3501 10.5085C28.1351 10.0523 27.8207 9.64213 27.4266 9.30387L23.8985 12.8387C23.7673 12.726 23.6625 12.5894 23.5909 12.4374L28.3501 10.5085ZM27.4266 9.30387C27.0326 8.96562 26.5674 8.70655 26.0603 8.54294L24.3538 13.0922C24.1848 13.0377 24.0298 12.9514 23.8985 12.8387L27.4266 9.30387ZM26.0603 8.54294C25.5532 8.37933 25.015 8.3147 24.4797 8.35311L24.8803 13.1555C24.702 13.1683 24.5227 13.1468 24.3538 13.0922L26.0603 8.54294ZM24.68 8.34593L14.2826 8.34593L14.2826 13.1627L24.68 13.1627L24.68 8.34593ZM16.8795 10.7543L16.8795 1.11173L11.6857 1.11173L11.6857 10.7543L16.8795 10.7543ZM16.8718 0.925956C16.7961 0.0186816 16.354 -0.828698 15.6339 -1.44684L12.1059 2.08802C11.866 1.88208 11.7187 1.59977 11.6935 1.2975L16.8718 0.925956ZM15.6339 -1.44684C14.9139 -2.06499 13.9688 -2.40837 12.9875 -2.40837L12.9875 2.40837C12.6606 2.40837 12.3458 2.29397 12.1059 2.08802L15.6339 -1.44684ZM12.9875 -2.40837C12.0063 -2.40837 11.0612 -2.06499 10.3411 -1.44684L13.8692 2.08802C13.6293 2.29397 13.3144 2.40837 12.9875 2.40837L12.9875 -2.40837ZM10.3411 -1.44684C9.62105 -0.828698 9.17899 0.0186814 9.1033 0.925956L14.2816 1.2975C14.2564 1.59977 14.1091 1.88208 13.8692 2.08802L10.3411 -1.44684ZM9.09556 1.11173L9.09556 10.7543H14.2894L14.2894 1.11173L9.09556 1.11173ZM11.6925 8.34593L1.29506 8.34593L1.29506 13.1627L11.6925 13.1627V8.34593ZM1.28733 8.34594C0.258116 8.34878 -0.72808 8.72921 -1.45586 9.40416L2.21671 12.8101C1.97424 13.035 1.64568 13.1617 1.30279 13.1627L1.28733 8.34594ZM-1.45586 9.40416C-2.18364 10.0791 -2.59385 10.9937 -2.59691 11.9482L2.59686 11.9625C2.59584 12.2805 2.45918 12.5852 2.21671 12.8101L-1.45586 9.40416ZM-2.59691 11.9625C-2.59385 12.917 -2.18363 13.8316 -1.45586 14.5066L2.21671 11.1006C2.45918 11.3255 2.59584 11.6302 2.59686 11.9482L-2.59691 11.9625ZM-1.45586 14.5066C-0.728084 15.1815 0.258109 15.5619 1.28733 15.5648L1.30279 10.7481C1.64568 10.749 1.97425 10.8758 2.21671 11.1006L-1.45586 14.5066ZM1.29506 15.5648L11.6925 15.5648L11.6925 10.7481L1.29506 10.7481L1.29506 15.5648ZM9.09556 13.1564L9.09556 22.799L14.2894 22.799L14.2894 13.1564L9.09556 13.1564ZM9.09557 22.8062C9.09864 23.7607 9.50885 24.6753 10.2366 25.3502L13.9092 21.9443C14.1517 22.1691 14.2883 22.4738 14.2893 22.7918L9.09557 22.8062ZM10.2366 25.3502C10.9644 26.0251 11.9506 26.4056 12.9798 26.4084L12.9953 21.5917C13.3382 21.5927 13.6667 21.7194 13.9092 21.9443L10.2366 25.3502ZM12.9953 26.4084C14.0245 26.4056 15.0107 26.0251 15.7385 25.3502L12.0659 21.9443C12.3084 21.7194 12.6369 21.5927 12.9798 21.5917L12.9953 26.4084ZM15.7385 25.3502C16.4662 24.6753 16.8764 23.7607 16.8795 22.8062L11.6857 22.7918C11.6868 22.4738 11.8234 22.1691 12.0659 21.9443L15.7385 25.3502ZM16.8795 22.799V13.1564L11.6857 13.1564V22.799H16.8795Z" fill="#FCFCFC" mask="url(#path-1-inside-1_0_87)"/>
</svg>
