<svg width="34" height="31" viewBox="0 0 34 31" fill="none" xmlns="http://www.w3.org/2000/svg">
<path d="M28.9036 13.1362L26.8145 11.3731L18.8025 4.63059C18.228 4.15401 17.4842 3.89053 16.7133 3.89053C15.9425 3.89053 15.1987 4.15401 14.6242 4.63059L6.63309 11.4118L4.54392 13.175C4.40324 13.3074 4.30659 13.4745 4.26551 13.6564C4.22443 13.8383 4.24064 14.0273 4.31221 14.201C4.38379 14.3746 4.50771 14.5254 4.66918 14.6355C4.83066 14.7456 5.02287 14.8103 5.2229 14.8219C5.48748 14.8108 5.73764 14.7069 5.92277 14.5312L6.26748 14.2406V24.2187C6.26748 24.9895 6.59765 25.7287 7.18534 26.2738C7.77303 26.8188 8.57012 27.125 9.40124 27.125H24.0254C24.8566 27.125 25.6536 26.8188 26.2413 26.2738C26.829 25.7287 27.1592 24.9895 27.1592 24.2187V14.2794L27.5039 14.57C27.6955 14.7315 27.9449 14.8212 28.2038 14.8219C28.4144 14.8213 28.6199 14.7618 28.7934 14.651C28.9669 14.5403 29.1002 14.3835 29.1759 14.2012C29.2515 14.0189 29.266 13.8197 29.2175 13.6296C29.1689 13.4396 29.0595 13.2676 28.9036 13.1362Z" fill="#7F3DFF"/>
</svg>
