<svg width="32" height="32" viewBox="0 0 32 32" fill="none" xmlns="http://www.w3.org/2000/svg">
<path d="M8.28356 18.8136L8.28311 18.814C7.65215 19.4434 7.22227 20.2459 7.04797 21.1199C6.87367 21.9939 6.9628 22.9 7.30405 23.7232C7.64531 24.5465 8.22333 25.2499 8.96483 25.7442C9.70563 26.2381 10.5763 26.5011 11.4666 26.5C12.0593 26.4925 12.6447 26.368 13.1891 26.1335C13.7344 25.8987 14.2278 25.5584 14.641 25.1321L14.6466 25.1262L14.6467 25.1263L23.1365 16.6465C23.1365 16.6464 23.1366 16.6463 23.1367 16.6463C24.3556 15.4272 25.0404 13.7739 25.0404 12.05C25.0404 10.326 24.3555 8.67265 23.1365 7.45359C21.9174 6.23454 20.264 5.54968 18.54 5.54968C16.8164 5.54968 15.1634 6.2342 13.9445 7.45269C13.9442 7.45299 13.9439 7.45329 13.9436 7.45359L9.01022 12.4368C8.93455 12.5307 8.89526 12.6489 8.89992 12.7698C8.90478 12.8956 8.95695 13.015 9.046 13.1041C9.13504 13.1931 9.25441 13.2453 9.38025 13.2501C9.5004 13.2548 9.618 13.216 9.71164 13.1411L14.6447 8.15827L14.6467 8.15624C15.6794 7.12499 17.0795 6.54623 18.5389 6.54726C19.9983 6.54829 21.3976 7.12904 22.4288 8.16174C23.4601 9.19444 24.0388 10.5945 24.0378 12.0539C24.0368 13.5132 23.4561 14.9124 22.4236 15.9436L8.28356 18.8136ZM8.28356 18.8136L16.7636 10.3336L16.764 10.3332M8.28356 18.8136L16.764 10.3332M16.764 10.3332C17.2326 9.86347 17.8686 9.59915 18.5321 9.59837C19.1955 9.59759 19.8322 9.86041 20.3019 10.329C20.7716 10.7976 21.0359 11.4336 21.0367 12.0971C21.0375 12.7604 20.7748 13.3968 20.3065 13.8665C20.3063 13.8666 20.3062 13.8668 20.306 13.8669L11.8175 22.3554C11.8174 22.3556 11.8172 22.3557 11.8171 22.3558C11.7235 22.4487 11.5969 22.5008 11.465 22.5008C11.3329 22.5008 11.2062 22.4486 11.1125 22.3554L11.1121 22.355M16.764 10.3332L11.1121 22.355M11.1121 22.355C11.0652 22.3086 11.028 22.2533 11.0027 22.1923C10.9773 22.1314 10.9642 22.066 10.9642 22C10.9642 21.934 10.9773 21.8687 11.0027 21.8078C11.028 21.7468 11.0652 21.6915 11.1121 21.645L11.1136 21.6436M11.1121 22.355L11.1136 21.6436M11.1136 21.6436L19.5921 13.165C19.5924 13.1648 19.5926 13.1645 19.5929 13.1643C19.7331 13.025 19.8444 12.8594 19.9204 12.6769C19.9966 12.4941 20.0358 12.2981 20.0358 12.1C20.0358 11.902 19.9966 11.706 19.9204 11.5232C19.8443 11.3404 19.7327 11.1745 19.5921 11.035C19.3111 10.7559 18.9311 10.5992 18.535 10.5992C18.1387 10.5992 17.7586 10.7561 17.4775 11.0354L17.4775 11.0354M11.1136 21.6436L17.4775 11.0354M17.4775 11.0354L8.9875 19.4754L8.98604 19.4769M17.4775 11.0354L8.98604 19.4769M8.98604 19.4769C8.33012 20.1344 7.96225 21.0255 7.96334 21.9542M8.98604 19.4769L7.96334 21.9542M7.96334 21.9542C7.96443 22.8829 8.33441 23.7731 8.99187 24.429M7.96334 21.9542L8.99187 24.429M8.99187 24.429C9.64933 25.0849 10.5404 25.4528 11.4691 25.4517M8.99187 24.429L11.4691 25.4517M11.4691 25.4517C12.3976 25.4506 13.2877 25.0808 13.9436 24.4236L11.4691 25.4517ZM13.944 24.4232L22.4233 15.9438L13.944 24.4232Z" fill="black" stroke="#91919F"/>
</svg>
