<svg width="32" height="32" viewBox="0 0 32 32" fill="none" xmlns="http://www.w3.org/2000/svg">
<path d="M9.65335 2.66663H7.12002C4.20002 2.66663 2.66669 4.19996 2.66669 7.10663V9.63996C2.66669 12.5466 4.20002 14.08 7.10669 14.08H9.64002C12.5467 14.08 14.08 12.5466 14.08 9.63996V7.10663C14.0934 4.19996 12.56 2.66663 9.65335 2.66663Z" fill="#C6C6C6"/>
<path d="M24.8926 2.66663H22.3593C19.4526 2.66663 17.9193 4.19996 17.9193 7.10663V9.63996C17.9193 12.5466 19.4526 14.08 22.3593 14.08H24.8926C27.7993 14.08 29.3326 12.5466 29.3326 9.63996V7.10663C29.3326 4.19996 27.7993 2.66663 24.8926 2.66663Z" fill="#C6C6C6"/>
<path d="M24.8926 17.9062H22.3593C19.4526 17.9062 17.9193 19.4396 17.9193 22.3463V24.8796C17.9193 27.7863 19.4526 29.3196 22.3593 29.3196H24.8926C27.7993 29.3196 29.3326 27.7863 29.3326 24.8796V22.3463C29.3326 19.4396 27.7993 17.9062 24.8926 17.9062Z" fill="#C6C6C6"/>
<path d="M9.65335 17.9062H7.12002C4.20002 17.9062 2.66669 19.4396 2.66669 22.3463V24.8796C2.66669 27.7996 4.20002 29.3329 7.10669 29.3329H9.64002C12.5467 29.3329 14.08 27.7996 14.08 24.8929V22.3596C14.0934 19.4396 12.56 17.9062 9.65335 17.9062Z" fill="#C6C6C6"/>
</svg>
