<svg width="34" height="32" viewBox="0 0 34 32" fill="none" xmlns="http://www.w3.org/2000/svg">
<path d="M21.1499 17.93V18.93C21.1499 19.5866 21.014 20.2368 20.75 20.8434C20.486 21.4501 20.0991 22.0013 19.6112 22.4656C19.1234 22.9299 18.5443 23.2982 17.9069 23.5494C17.2696 23.8007 16.5864 23.93 15.8966 23.93H12.4714C12.4552 24.4769 12.2822 25.0092 11.971 25.4692C11.6599 25.9292 11.2226 26.2995 10.7063 26.54C10.2757 26.7448 9.80075 26.851 9.31939 26.85C8.60732 26.8541 7.9148 26.6285 7.35464 26.21L3.45667 23.3C3.07703 23.0196 2.76979 22.6603 2.55842 22.2495C2.34706 21.8387 2.23718 21.3874 2.23718 20.93C2.23718 20.4727 2.34706 20.0213 2.55842 19.6106C2.76979 19.1998 3.07703 18.8405 3.45667 18.56L7.35464 15.65C7.82429 15.2933 8.39129 15.0717 8.98882 15.0115C9.58636 14.9513 10.1895 15.0548 10.7273 15.31C11.4433 15.636 11.9948 16.2184 12.2613 16.93H20.0677C20.2083 16.926 20.3483 16.9489 20.4795 16.9974C20.6106 17.0458 20.7302 17.1188 20.8311 17.2121C20.932 17.3054 21.0123 17.417 21.067 17.5403C21.1218 17.6636 21.15 17.7961 21.1499 17.93Z" fill="#C6C6C6"/>
<path d="M31.3834 11.07C31.3835 11.5273 31.2738 11.9786 31.0625 12.3894C30.8513 12.8002 30.5442 13.1595 30.1647 13.44L26.2667 16.35C25.6987 16.7701 25.0002 16.9987 24.2809 17C23.7996 17.0009 23.3247 16.8948 22.8941 16.69C22.178 16.364 21.6265 15.7817 21.3601 15.07H13.5221C13.2434 15.07 12.9762 14.9647 12.7792 14.7771C12.5821 14.5896 12.4714 14.3352 12.4714 14.07V13.07C12.4714 11.7439 13.0249 10.4722 14.0101 9.53448C14.9953 8.5968 16.3315 8.07001 17.7248 8.07001H21.1499C21.1627 7.51096 21.3394 6.96644 21.6601 6.4979C21.9808 6.02935 22.4326 5.65543 22.9647 5.41834C23.4968 5.18124 24.0879 5.0904 24.6714 5.15608C25.2548 5.22175 25.8074 5.44132 26.2667 5.79001L30.1647 8.70001C30.5442 8.98051 30.8513 9.33987 31.0625 9.75063C31.2738 10.1614 31.3835 10.6127 31.3834 11.07Z" fill="#C6C6C6"/>
</svg>
