<svg width="24" height="24" viewBox="0 0 24 24" fill="none" xmlns="http://www.w3.org/2000/svg">
<path d="M9.44249 19.1175C9.34326 19.1171 9.2451 19.097 9.15369 19.0584C9.06228 19.0197 8.97945 18.9634 8.90999 18.8925C8.7703 18.752 8.69189 18.5619 8.69189 18.3638C8.69189 18.1656 8.7703 17.9755 8.90999 17.835L13.155 13.59C13.5763 13.1681 13.813 12.5963 13.813 12C13.813 11.4037 13.5763 10.8319 13.155 10.41L8.90999 6.165C8.78712 6.02153 8.72291 5.83697 8.73021 5.64821C8.7375 5.45945 8.81575 5.2804 8.94932 5.14683C9.08289 5.01326 9.26194 4.93501 9.4507 4.92772C9.63946 4.92043 9.82401 4.98463 9.96749 5.1075L14.25 9.345C14.5992 9.69334 14.8763 10.1072 15.0653 10.5627C15.2544 11.0183 15.3517 11.5067 15.3517 12C15.3517 12.4933 15.2544 12.9817 15.0653 13.4373C14.8763 13.8928 14.5992 14.3067 14.25 14.655L10.005 18.8925C9.93203 18.9671 9.84432 19.0256 9.74747 19.0643C9.65061 19.1031 9.54674 19.1212 9.44249 19.1175Z" fill="#7F3DFF"/>
</svg>
