<svg width="34" height="31" viewBox="0 0 34 31" fill="none" xmlns="http://www.w3.org/2000/svg">
<path d="M16.7134 15.5678C20.1748 15.5678 22.9809 12.9654 22.9809 9.75528C22.9809 6.54512 20.1748 3.94278 16.7134 3.94278C13.2519 3.94278 10.4458 6.54512 10.4458 9.75528C10.4458 12.9654 13.2519 15.5678 16.7134 15.5678Z" fill="#C6C6C6"/>
<path d="M19.8471 17.4375H13.5796C11.6403 17.4375 9.78046 18.1519 8.40917 19.4236C7.03789 20.6954 6.26751 22.4202 6.26751 24.2187C6.26751 24.9895 6.59767 25.7287 7.18537 26.2737C7.77306 26.8188 8.57014 27.125 9.40127 27.125H24.0255C24.8566 27.125 25.6537 26.8188 26.2414 26.2737C26.8291 25.7287 27.1592 24.9895 27.1592 24.2187C27.1592 22.4202 26.3888 20.6954 25.0176 19.4236C23.6463 18.1519 21.7864 17.4375 19.8471 17.4375Z" fill="#C6C6C6"/>
</svg>
